STARTFONT 2.1
FONT -sun-conga-medium-r-normal--17-170-75-75-p-117-adobe-fontspecific
SIZE 17 75 75
FONTBOUNDINGBOX 25 20 -4 -4

STARTPROPERTIES 28
FOUNDRY "sun"
FAMILY_NAME "conga"
WEIGHT_NAME "medium"
SLANT "r"
SETWIDTH_NAME "normal"
ADD_STYLE_NAME ""
PIXEL_SIZE 18
POINT_SIZE 170
RESOLUTION_X 75
RESOLUTION_Y 75
SPACING "p"
AVERAGE_WIDTH 117
CHARSET_REGISTRY "adobe"
CHARSET_ENCODING "fontspecific"
COPYRIGHT "© 1999 Sun Microsystems, Inc."
RAW_PIXELSIZE 1000
RAW_POINTSIZE 964
RAW_ASCENT 927
RAW_DESCENT 211
RAW_AVERAGE_WIDTH 6603
FACE_NAME "CongaNormal"
_XMBDFED_INFO "Edited with xmbdfed 2.4."
WEIGHT 10
X_HEIGHT -1
QUAD_WIDTH 11
DEFAULT_CHAR 4
FONT_DESCENT 4
FONT_ASCENT 16
ENDPROPERTIES

CHARS 203

STARTCHAR char32
ENCODING 32
SWIDTH 45 0
DWIDTH 9 0
BBX 0 0 0 0
BITMAP
ENDCHAR

STARTCHAR char33
ENCODING 33
SWIDTH 20 0
DWIDTH 4 0
BBX 2 13 1 0
BITMAP
C0
40
40
40
40
40
40
40
40
00
00
40
40
ENDCHAR

STARTCHAR char34
ENCODING 34
SWIDTH 25 0
DWIDTH 5 0
BBX 3 5 1 8
BITMAP
20
A0
A0
A0
A0
ENDCHAR

STARTCHAR char35
ENCODING 35
SWIDTH 4 0
DWIDTH 11 0
BBX 8 13 1 0
BITMAP
12
32
32
22
FF
24
24
24
FF
44
44
4C
48
ENDCHAR

STARTCHAR char36
ENCODING 36
SWIDTH 19 0
DWIDTH 14 0
BBX 12 16 0 -2
BITMAP
0200
0200
1FC0
2220
4220
4200
6200
3F00
03C0
0220
0220
4220
F240
0F80
0200
0200
ENDCHAR

STARTCHAR char37
ENCODING 37
SWIDTH 8 0
DWIDTH 22 0
BBX 19 12 0 0
BITMAP
7E0400
420400
810800
811000
812780
426840
66D020
399020
011020
021020
040840
040780
ENDCHAR

STARTCHAR char38
ENCODING 38
SWIDTH 24 0
DWIDTH 15 0
BBX 13 12 1 0
BITMAP
1E00
6100
4100
6100
3E30
6770
4140
81C0
8180
81C0
4268
3C30
ENDCHAR

STARTCHAR char39
ENCODING 39
SWIDTH 15 0
DWIDTH 3 0
BBX 1 4 1 8
BITMAP
80
80
80
80
ENDCHAR

STARTCHAR char40
ENCODING 40
SWIDTH 30 0
DWIDTH 6 0
BBX 4 13 1 0
BITMAP
20
20
40
40
80
80
80
80
80
C0
40
60
30
ENDCHAR

STARTCHAR char41
ENCODING 41
SWIDTH 30 0
DWIDTH 6 0
BBX 3 13 1 0
BITMAP
80
80
40
40
20
20
20
20
20
20
40
C0
80
ENDCHAR

STARTCHAR char42
ENCODING 42
SWIDTH 45 0
DWIDTH 9 0
BBX 8 8 0 5
BITMAP
18
08
4A
7F
18
34
66
24
ENDCHAR

STARTCHAR char43
ENCODING 43
SWIDTH 14 0
DWIDTH 13 0
BBX 10 10 1 0
BITMAP
0800
0800
0800
0800
FFC0
0800
0800
0800
0800
0800
ENDCHAR

STARTCHAR char44
ENCODING 44
SWIDTH 15 0
DWIDTH 3 0
BBX 1 4 1 -2
BITMAP
80
80
80
80
ENDCHAR

STARTCHAR char45
ENCODING 45
SWIDTH 30 0
DWIDTH 6 0
BBX 5 1 0 5
BITMAP
F8
ENDCHAR

STARTCHAR char46
ENCODING 46
SWIDTH 15 0
DWIDTH 3 0
BBX 1 1 1 0
BITMAP
80
ENDCHAR

STARTCHAR char47
ENCODING 47
SWIDTH 14 0
DWIDTH 13 0
BBX 11 12 0 0
BITMAP
0020
0040
0080
0100
0300
0200
0400
0800
1000
2000
4000
8000
ENDCHAR

STARTCHAR char48
ENCODING 48
SWIDTH 24 0
DWIDTH 15 0
BBX 12 12 1 0
BITMAP
3F80
6060
C020
8030
8010
8010
8010
8010
8020
4060
60C0
1F00
ENDCHAR

STARTCHAR char49
ENCODING 49
SWIDTH 24 0
DWIDTH 15 0
BBX 4 12 5 0
BITMAP
20
E0
A0
20
20
20
20
20
20
20
20
20
ENDCHAR

STARTCHAR char50
ENCODING 50
SWIDTH 24 0
DWIDTH 15 0
BBX 11 12 2 0
BITMAP
1F00
6080
8040
0040
00C0
0180
0600
1800
2000
4000
C020
FFC0
ENDCHAR

STARTCHAR char51
ENCODING 51
SWIDTH 24 0
DWIDTH 15 0
BBX 11 12 1 0
BITMAP
3F80
E040
4040
0040
08C0
0F80
0040
0020
0020
4020
E0C0
1F80
ENDCHAR

STARTCHAR char52
ENCODING 52
SWIDTH 24 0
DWIDTH 15 0
BBX 12 12 1 0
BITMAP
0180
0380
0680
0C80
0880
1080
2080
4080
FFF0
8090
0080
0080
ENDCHAR

STARTCHAR char53
ENCODING 53
SWIDTH 24 0
DWIDTH 15 0
BBX 11 13 1 0
BITMAP
0040
7FC0
4000
4000
4F00
78C0
2060
0020
0020
0020
4060
60C0
1F80
ENDCHAR

STARTCHAR char54
ENCODING 54
SWIDTH 24 0
DWIDTH 15 0
BBX 10 12 2 0
BITMAP
3F00
60C0
4000
8000
9F00
B180
C040
C040
C040
C040
6180
1F00
ENDCHAR

STARTCHAR char55
ENCODING 55
SWIDTH 24 0
DWIDTH 15 0
BBX 12 13 1 0
BITMAP
8010
FFE0
0060
0040
0080
0180
0100
0300
0200
0600
0C00
0800
1800
ENDCHAR

STARTCHAR char56
ENCODING 56
SWIDTH 24 0
DWIDTH 15 0
BBX 11 12 1 0
BITMAP
1F80
6040
4020
4060
20C0
3F80
6060
C020
C020
C020
60C0
1F80
ENDCHAR

STARTCHAR char57
ENCODING 57
SWIDTH 24 0
DWIDTH 15 0
BBX 11 12 1 0
BITMAP
3F80
60C0
C040
8060
8060
61A0
1E20
0020
0040
8040
C180
3F00
ENDCHAR

STARTCHAR char58
ENCODING 58
SWIDTH 20 0
DWIDTH 4 0
BBX 1 7 2 0
BITMAP
80
00
00
00
00
00
80
ENDCHAR

STARTCHAR char59
ENCODING 59
SWIDTH 20 0
DWIDTH 4 0
BBX 1 9 2 -2
BITMAP
80
00
00
00
00
80
80
80
80
ENDCHAR

STARTCHAR char60
ENCODING 60
SWIDTH 9 0
DWIDTH 12 0
BBX 9 9 1 0
BITMAP
0080
0700
1C00
7000
8000
6000
1C00
0700
0180
ENDCHAR

STARTCHAR char61
ENCODING 61
SWIDTH 14 0
DWIDTH 13 0
BBX 11 4 0 3
BITMAP
FFE0
0000
0000
FFE0
ENDCHAR

STARTCHAR char62
ENCODING 62
SWIDTH 9 0
DWIDTH 12 0
BBX 9 9 1 0
BITMAP
8000
6000
1C00
0700
0180
0700
1C00
7000
8000
ENDCHAR

STARTCHAR char63
ENCODING 63
SWIDTH 50 0
DWIDTH 10 0
BBX 7 12 1 0
BITMAP
78
C6
42
06
04
08
08
10
10
00
00
10
ENDCHAR

STARTCHAR char64
ENCODING 64
SWIDTH 44 0
DWIDTH 19 0
BBX 12 13 3 0
BITMAP
0F80
30C0
4020
4F50
9990
B090
B090
A190
B320
9DC0
4020
2040
1F80
ENDCHAR

STARTCHAR char65
ENCODING 65
SWIDTH 24 0
DWIDTH 15 0
BBX 14 12 0 0
BITMAP
0780
0500
0580
0880
08C0
1840
1060
3FE0
2030
6010
4010
E01C
ENDCHAR

STARTCHAR char66
ENCODING 66
SWIDTH 24 0
DWIDTH 15 0
BBX 12 12 1 0
BITMAP
7FC0
4020
4030
4030
4060
7FC0
4020
4010
4010
4010
4060
7FC0
ENDCHAR

STARTCHAR char67
ENCODING 67
SWIDTH 29 0
DWIDTH 16 0
BBX 13 12 1 0
BITMAP
1FC0
6030
4010
8000
8000
8000
8000
8000
C008
6018
3070
0FC0
ENDCHAR

STARTCHAR char68
ENCODING 68
SWIDTH 29 0
DWIDTH 16 0
BBX 13 12 1 0
BITMAP
7FC0
4060
4010
4018
4008
4008
4008
4008
4010
4030
4060
7F80
ENDCHAR

STARTCHAR char69
ENCODING 69
SWIDTH 19 0
DWIDTH 14 0
BBX 12 13 1 0
BITMAP
0020
7FE0
4000
4000
4000
4000
7F00
4080
4000
4000
4000
4010
7FE0
ENDCHAR

STARTCHAR char70
ENCODING 70
SWIDTH 19 0
DWIDTH 14 0
BBX 11 13 1 0
BITMAP
0020
FFE0
4000
4000
4000
4000
7F00
4080
4000
4000
4000
4000
E000
ENDCHAR

STARTCHAR char71
ENCODING 71
SWIDTH 29 0
DWIDTH 16 0
BBX 13 12 1 0
BITMAP
1FC0
6030
4010
8000
8000
8000
81F0
8110
C010
4010
3060
1FC0
ENDCHAR

STARTCHAR char72
ENCODING 72
SWIDTH 29 0
DWIDTH 16 0
BBX 12 12 1 0
BITMAP
6030
4010
4010
4010
4010
7FF0
4010
4010
4010
4010
4010
C030
ENDCHAR

STARTCHAR char73
ENCODING 73
SWIDTH 25 0
DWIDTH 5 0
BBX 3 12 1 0
BITMAP
E0
40
40
40
40
40
40
40
40
40
40
E0
ENDCHAR

STARTCHAR char74
ENCODING 74
SWIDTH 9 0
DWIDTH 12 0
BBX 10 12 0 0
BITMAP
00C0
0080
0080
0080
0080
0080
0080
0080
0080
4080
6100
3E00
ENDCHAR

STARTCHAR char75
ENCODING 75
SWIDTH 24 0
DWIDTH 15 0
BBX 12 12 1 0
BITMAP
E070
4080
4300
4600
4C00
5600
6300
4100
4180
40C0
4060
E070
ENDCHAR

STARTCHAR char76
ENCODING 76
SWIDTH 19 0
DWIDTH 14 0
BBX 12 12 1 0
BITMAP
E000
4000
4000
4000
4000
4000
4000
4000
4000
4000
4010
7FE0
ENDCHAR

STARTCHAR char77
ENCODING 77
SWIDTH 39 0
DWIDTH 18 0
BBX 15 12 1 0
BITMAP
F01E
6028
5028
5028
4848
4848
4C88
4488
4788
4308
4308
E108
ENDCHAR

STARTCHAR char78
ENCODING 78
SWIDTH 29 0
DWIDTH 16 0
BBX 13 12 1 0
BITMAP
F038
7010
5810
4C10
4410
4210
4310
4190
40D0
4070
4030
C038
ENDCHAR

STARTCHAR char79
ENCODING 79
SWIDTH 39 0
DWIDTH 18 0
BBX 14 12 1 0
BITMAP
1FE0
6030
4008
800C
8004
8004
8004
8004
C008
4018
3030
0FC0
ENDCHAR

STARTCHAR char80
ENCODING 80
SWIDTH 19 0
DWIDTH 14 0
BBX 11 12 1 0
BITMAP
7F80
4040
4020
4020
4060
7FC0
4000
4000
4000
4000
4000
C000
ENDCHAR

STARTCHAR char81
ENCODING 81
SWIDTH 29 0
DWIDTH 16 0
BBX 13 13 1 -1
BITMAP
3FC0
6060
C030
8018
8008
8008
8008
8018
C010
4630
31E0
1FE0
0030
ENDCHAR

STARTCHAR char82
ENCODING 82
SWIDTH 24 0
DWIDTH 15 0
BBX 13 12 1 0
BITMAP
7FC0
4020
4010
4010
4020
7FC0
4180
4080
40C0
4040
4060
E038
ENDCHAR

STARTCHAR char83
ENCODING 83
SWIDTH 19 0
DWIDTH 14 0
BBX 12 12 0 0
BITMAP
1FC0
2020
4000
4000
6000
3FC0
0060
0010
0010
4010
F060
1FC0
ENDCHAR

STARTCHAR char84
ENCODING 84
SWIDTH 19 0
DWIDTH 14 0
BBX 13 13 0 0
BITMAP
8008
FFF0
0200
0200
0200
0200
0200
0200
0200
0200
0200
0200
0700
ENDCHAR

STARTCHAR char85
ENCODING 85
SWIDTH 29 0
DWIDTH 16 0
BBX 12 12 1 0
BITMAP
E030
C020
4020
4020
4020
4020
4020
4020
4020
4020
6060
3F80
ENDCHAR

STARTCHAR char86
ENCODING 86
SWIDTH 19 0
DWIDTH 14 0
BBX 13 12 0 0
BITMAP
E038
4020
6020
2060
3040
10C0
1080
1980
0900
0D00
0600
0700
ENDCHAR

STARTCHAR char87
ENCODING 87
SWIDTH 3 0
DWIDTH 21 0
BBX 20 12 0 0
BITMAP
E0E070
40A040
40A0C0
61A080
211080
211180
331900
120900
120B00
1C0E00
0C0600
0E0700
ENDCHAR

STARTCHAR char88
ENCODING 88
SWIDTH 19 0
DWIDTH 14 0
BBX 12 12 0 0
BITMAP
7070
30C0
1880
0D00
0700
0600
0700
0980
1880
3040
6060
E030
ENDCHAR

STARTCHAR char89
ENCODING 89
SWIDTH 14 0
DWIDTH 13 0
BBX 13 12 0 0
BITMAP
E038
6040
3080
1100
0B00
0E00
0400
0400
0400
0400
0400
0600
ENDCHAR

STARTCHAR char90
ENCODING 90
SWIDTH 14 0
DWIDTH 13 0
BBX 12 13 0 0
BITMAP
8000
FFE0
00C0
0080
0100
0300
0600
0C00
1800
1800
3000
6010
FFE0
ENDCHAR

STARTCHAR char91
ENCODING 91
SWIDTH 35 0
DWIDTH 7 0
BBX 4 13 2 0
BITMAP
10
F0
80
80
80
80
80
80
80
80
80
90
F0
ENDCHAR

STARTCHAR char92
ENCODING 92
SWIDTH 25 0
DWIDTH 5 0
BBX 5 13 0 0
BITMAP
80
80
40
40
40
60
20
20
30
10
10
18
08
ENDCHAR

STARTCHAR char93
ENCODING 93
SWIDTH 35 0
DWIDTH 7 0
BBX 5 13 0 0
BITMAP
80
F0
10
10
10
10
10
10
10
10
10
90
70
ENDCHAR

STARTCHAR char94
ENCODING 94
SWIDTH 0 0
DWIDTH 0 0
BBX 6 3 -3 13
BITMAP
30
58
8C
ENDCHAR

STARTCHAR char95
ENCODING 95
SWIDTH 4 0
DWIDTH 11 0
BBX 10 1 0 -2
BITMAP
FFC0
ENDCHAR

STARTCHAR char96
ENCODING 96
SWIDTH 0 0
DWIDTH 0 0
BBX 4 3 -3 11
BITMAP
C0
60
20
ENDCHAR

STARTCHAR char97
ENCODING 97
SWIDTH 14 0
DWIDTH 13 0
BBX 12 10 0 0
BITMAP
0600
0A00
0A00
1100
1100
2080
3F80
6040
4040
E070
ENDCHAR

STARTCHAR char98
ENCODING 98
SWIDTH 14 0
DWIDTH 13 0
BBX 10 10 1 0
BITMAP
FF80
8080
80C0
8080
FF00
8080
8040
8040
80C0
FF00
ENDCHAR

STARTCHAR char99
ENCODING 99
SWIDTH 14 0
DWIDTH 13 0
BBX 12 10 0 0
BITMAP
1FF0
6020
4000
8000
8000
8000
C000
6020
3060
1F80
ENDCHAR

STARTCHAR char100
ENCODING 100
SWIDTH 19 0
DWIDTH 14 0
BBX 11 10 1 0
BITMAP
FF80
80C0
8040
8020
8020
8020
8060
8040
8080
FF00
ENDCHAR

STARTCHAR char101
ENCODING 101
SWIDTH 9 0
DWIDTH 12 0
BBX 9 11 1 0
BITMAP
0080
FF80
8000
8000
8000
FE00
8100
8000
8000
8000
FF80
ENDCHAR

STARTCHAR char102
ENCODING 102
SWIDTH 9 0
DWIDTH 12 0
BBX 9 11 1 0
BITMAP
0080
FF80
8000
8000
8000
FE00
8000
8000
8000
8000
C000
ENDCHAR

STARTCHAR char103
ENCODING 103
SWIDTH 19 0
DWIDTH 14 0
BBX 11 10 1 0
BITMAP
3F00
40C0
8000
8000
8000
83C0
8040
C040
60C0
3F00
ENDCHAR

STARTCHAR char104
ENCODING 104
SWIDTH 19 0
DWIDTH 14 0
BBX 11 10 1 0
BITMAP
8040
8040
8040
8040
FFC0
8040
8040
8040
8040
C0E0
ENDCHAR

STARTCHAR char105
ENCODING 105
SWIDTH 20 0
DWIDTH 4 0
BBX 3 10 1 0
BITMAP
E0
40
40
40
40
40
40
40
40
E0
ENDCHAR

STARTCHAR char106
ENCODING 106
SWIDTH 50 0
DWIDTH 10 0
BBX 8 10 1 0
BITMAP
07
02
02
02
02
02
02
02
86
78
ENDCHAR

STARTCHAR char107
ENCODING 107
SWIDTH 9 0
DWIDTH 12 0
BBX 11 10 1 0
BITMAP
C1E0
8200
8C00
9800
A800
C400
8200
8300
8180
C0C0
ENDCHAR

STARTCHAR char108
ENCODING 108
SWIDTH 9 0
DWIDTH 12 0
BBX 9 10 1 0
BITMAP
C000
8000
8000
8000
8000
8000
8000
8000
8000
FF80
ENDCHAR

STARTCHAR char109
ENCODING 109
SWIDTH 24 0
DWIDTH 15 0
BBX 12 10 1 0
BITMAP
C070
C060
A060
B0A0
9120
9920
8A20
8E20
8420
C430
ENDCHAR

STARTCHAR char110
ENCODING 110
SWIDTH 19 0
DWIDTH 14 0
BBX 11 10 1 0
BITMAP
E060
A040
9040
8840
8440
8240
8340
8140
80C0
E060
ENDCHAR

STARTCHAR char111
ENCODING 111
SWIDTH 24 0
DWIDTH 15 0
BBX 13 10 0 0
BITMAP
1FC0
6030
4010
8008
8008
8008
C018
4010
3060
0F80
ENDCHAR

STARTCHAR char112
ENCODING 112
SWIDTH 9 0
DWIDTH 12 0
BBX 9 10 1 0
BITMAP
FF00
8080
8080
8080
FF00
8000
8000
8000
8000
8000
ENDCHAR

STARTCHAR char113
ENCODING 113
SWIDTH 19 0
DWIDTH 14 0
BBX 11 11 0 -1
BITMAP
1F80
6040
4020
8020
8020
8020
C020
4040
33C0
1FC0
0040
ENDCHAR

STARTCHAR char114
ENCODING 114
SWIDTH 14 0
DWIDTH 13 0
BBX 10 10 1 0
BITMAP
FF80
8040
8040
80C0
FF80
8200
8300
8180
8080
80C0
ENDCHAR

STARTCHAR char115
ENCODING 115
SWIDTH 9 0
DWIDTH 12 0
BBX 10 10 0 0
BITMAP
1FC0
6040
4000
4000
3F80
0040
0040
4040
60C0
1F00
ENDCHAR

STARTCHAR char116
ENCODING 116
SWIDTH 9 0
DWIDTH 12 0
BBX 11 11 0 0
BITMAP
8020
FFC0
0400
0400
0400
0400
0400
0400
0400
0400
0E00
ENDCHAR

STARTCHAR char117
ENCODING 117
SWIDTH 14 0
DWIDTH 13 0
BBX 11 10 1 0
BITMAP
C0E0
8040
8040
8040
8040
8040
8040
8040
4080
3F00
ENDCHAR

STARTCHAR char118
ENCODING 118
SWIDTH 9 0
DWIDTH 12 0
BBX 11 10 0 0
BITMAP
E060
4040
6080
2080
3100
1100
1200
0A00
0C00
0C00
ENDCHAR

STARTCHAR char119
ENCODING 119
SWIDTH 39 0
DWIDTH 18 0
BBX 17 10 0 0
BITMAP
E1C380
418200
42C200
624400
224400
242400
142800
142800
181800
1C1800
ENDCHAR

STARTCHAR char120
ENCODING 120
SWIDTH 9 0
DWIDTH 12 0
BBX 10 10 0 0
BITMAP
70C0
7180
3300
1E00
0C00
0E00
1300
2180
4080
C0C0
ENDCHAR

STARTCHAR char121
ENCODING 121
SWIDTH 4 0
DWIDTH 11 0
BBX 10 10 0 0
BITMAP
E0C0
6180
2300
1600
1C00
0800
0800
0800
0800
0E00
ENDCHAR

STARTCHAR char122
ENCODING 122
SWIDTH 4 0
DWIDTH 11 0
BBX 10 11 0 0
BITMAP
4000
7F80
0100
0300
0200
0400
0800
1000
3000
6000
7FC0
ENDCHAR

STARTCHAR char123
ENCODING 123
SWIDTH 30 0
DWIDTH 6 0
BBX 4 15 1 -3
BITMAP
70
60
60
60
40
40
40
80
40
40
60
40
40
40
30
ENDCHAR

STARTCHAR char124
ENCODING 124
SWIDTH 25 0
DWIDTH 5 0
BBX 1 13 2 0
BITMAP
80
80
80
80
80
80
80
80
80
80
80
80
80
ENDCHAR

STARTCHAR char125
ENCODING 125
SWIDTH 30 0
DWIDTH 6 0
BBX 4 15 1 -3
BITMAP
C0
20
20
20
20
20
20
10
20
20
60
20
20
20
C0
ENDCHAR

STARTCHAR char126
ENCODING 126
SWIDTH 0 0
DWIDTH 0 0
BBX 8 3 -4 13
BITMAP
72
DE
44
ENDCHAR

STARTCHAR char128
ENCODING 128
SWIDTH 29 0
DWIDTH 16 0
BBX 16 12 -1 0
BITMAP
03F8
0E07
0801
1800
FFF8
1000
FFF8
1000
1801
0C03
060E
01F8
ENDCHAR

STARTCHAR char130
ENCODING 130
SWIDTH 15 0
DWIDTH 3 0
BBX 1 4 1 -2
BITMAP
80
80
80
80
ENDCHAR

STARTCHAR char131
ENCODING 131
SWIDTH 0 0
DWIDTH 0 0
BBX 6 3 -3 13
BITMAP
30
58
8C
ENDCHAR

STARTCHAR char132
ENCODING 132
SWIDTH 30 0
DWIDTH 6 0
BBX 4 3 1 -2
BITMAP
A0
90
90
ENDCHAR

STARTCHAR char133
ENCODING 133
SWIDTH 44 0
DWIDTH 19 0
BBX 12 1 3 0
BITMAP
8410
ENDCHAR

STARTCHAR char134
ENCODING 134
SWIDTH 4 0
DWIDTH 11 0
BBX 10 16 0 -3
BITMAP
0C00
0800
0800
0800
FFC0
8840
0800
0800
0800
0800
0800
0800
0800
0800
0800
0C00
ENDCHAR

STARTCHAR char136
ENCODING 136
SWIDTH 0 0
DWIDTH 0 0
BBX 6 3 -3 11
BITMAP
30
30
48
ENDCHAR

STARTCHAR char138
ENCODING 138
SWIDTH 39 0
DWIDTH 18 0
BBX 0 0 0 0
BITMAP
ENDCHAR

STARTCHAR char139
ENCODING 139
SWIDTH 30 0
DWIDTH 6 0
BBX 2 6 2 2
BITMAP
40
40
80
80
C0
40
ENDCHAR

STARTCHAR char140
ENCODING 140
SWIDTH 3 0
DWIDTH 21 0
BBX 18 13 1 0
BITMAP
060040
3FFF80
608000
C08000
808000
808200
80FC00
808200
808000
C08000
408000
308040
1FFF80
ENDCHAR

STARTCHAR char141
ENCODING 141
SWIDTH 39 0
DWIDTH 18 0
BBX 0 0 0 0
BITMAP
ENDCHAR

STARTCHAR char145
ENCODING 145
SWIDTH 15 0
DWIDTH 3 0
BBX 1 4 1 9
BITMAP
80
80
80
80
ENDCHAR

STARTCHAR char146
ENCODING 146
SWIDTH 15 0
DWIDTH 3 0
BBX 2 3 1 9
BITMAP
80
40
40
ENDCHAR

STARTCHAR char147
ENCODING 147
SWIDTH 30 0
DWIDTH 6 0
BBX 3 3 1 9
BITMAP
A0
A0
A0
ENDCHAR

STARTCHAR char148
ENCODING 148
SWIDTH 30 0
DWIDTH 6 0
BBX 3 3 1 9
BITMAP
A0
A0
A0
ENDCHAR

STARTCHAR char149
ENCODING 149
SWIDTH 30 0
DWIDTH 6 0
BBX 5 5 0 4
BITMAP
70
F8
F8
F8
70
ENDCHAR

STARTCHAR char150
ENCODING 150
SWIDTH 24 0
DWIDTH 15 0
BBX 13 1 0 5
BITMAP
FFF8
ENDCHAR

STARTCHAR char151
ENCODING 151
SWIDTH 14 0
DWIDTH 13 0
BBX 11 1 0 5
BITMAP
FFE0
ENDCHAR

STARTCHAR char152
ENCODING 152
SWIDTH 0 0
DWIDTH 0 0
BBX 6 2 -3 11
BITMAP
64
98
ENDCHAR

STARTCHAR char153
ENCODING 153
SWIDTH 34 0
DWIDTH 17 0
BBX 14 7 0 5
BITMAP
FF0C
958C
118C
1194
1154
1164
312C
ENDCHAR

STARTCHAR char155
ENCODING 155
SWIDTH 30 0
DWIDTH 6 0
BBX 2 6 2 2
BITMAP
80
80
40
40
C0
80
ENDCHAR

STARTCHAR char156
ENCODING 156
SWIDTH 34 0
DWIDTH 17 0
BBX 14 11 1 0
BITMAP
0004
3FFC
4200
8200
8200
83F0
8200
8200
C200
6200
1FFC
ENDCHAR

STARTCHAR char157
ENCODING 157
SWIDTH 39 0
DWIDTH 18 0
BBX 0 0 0 0
BITMAP
ENDCHAR

STARTCHAR char159
ENCODING 159
SWIDTH 14 0
DWIDTH 13 0
BBX 12 16 0 0
BITMAP
1000
1100
0000
0000
4020
6040
3080
1100
0B00
0E00
0400
0400
0400
0400
0400
0400
ENDCHAR

STARTCHAR char160
ENCODING 160
SWIDTH 45 0
DWIDTH 9 0
BBX 0 0 0 0
BITMAP
ENDCHAR

STARTCHAR char161
ENCODING 161
SWIDTH 20 0
DWIDTH 4 0
BBX 3 12 0 0
BITMAP
40
00
00
40
40
40
40
40
40
40
40
C0
ENDCHAR

STARTCHAR char162
ENCODING 162
SWIDTH 14 0
DWIDTH 13 0
BBX 12 14 0 -2
BITMAP
0200
0300
1FF0
6220
4200
8200
8200
8200
C200
6220
3260
0F80
0200
0200
ENDCHAR

STARTCHAR char163
ENCODING 163
SWIDTH 24 0
DWIDTH 15 0
BBX 12 12 1 0
BITMAP
0F80
3070
4010
4000
4000
C100
FE00
4000
4000
4000
C010
FFE0
ENDCHAR

STARTCHAR char164
ENCODING 164
SWIDTH 0 0
DWIDTH 0 0
BBX 4 3 -1 13
BITMAP
20
40
C0
ENDCHAR

STARTCHAR char165
ENCODING 165
SWIDTH 0 0
DWIDTH 0 0
BBX 6 3 -3 13
BITMAP
C8
70
30
ENDCHAR

STARTCHAR char166
ENCODING 166
SWIDTH 39 0
DWIDTH 18 0
BBX 0 0 0 0
BITMAP
ENDCHAR

STARTCHAR char167
ENCODING 167
SWIDTH 50 0
DWIDTH 10 0
BBX 9 16 0 -4
BITMAP
3C00
2300
2000
3000
3800
6600
4300
4180
6080
3100
1F00
0600
4100
C100
3700
1E00
ENDCHAR

STARTCHAR char168
ENCODING 168
SWIDTH 0 0
DWIDTH 0 0
BBX 4 2 -2 12
BITMAP
10
90
ENDCHAR

STARTCHAR char169
ENCODING 169
SWIDTH 24 0
DWIDTH 15 0
BBX 12 12 1 0
BITMAP
0F00
3080
4040
4720
9890
9010
9010
9010
9990
4620
20C0
1F00
ENDCHAR

STARTCHAR char170
ENCODING 170
SWIDTH 0 0
DWIDTH 0 0
BBX 6 2 -3 14
BITMAP
84
84
ENDCHAR

STARTCHAR char171
ENCODING 171
SWIDTH 40 0
DWIDTH 8 0
BBX 5 7 1 2
BITMAP
28
68
50
D0
50
50
28
ENDCHAR

STARTCHAR char172
ENCODING 172
SWIDTH 19 0
DWIDTH 14 0
BBX 12 5 0 0
BITMAP
FFF0
0010
0010
0010
0010
ENDCHAR

STARTCHAR char174
ENCODING 174
SWIDTH 24 0
DWIDTH 15 0
BBX 12 12 1 0
BITMAP
0E00
3180
4040
5F20
8910
8910
8E10
8A10
8B10
5DA0
6040
1F80
ENDCHAR

STARTCHAR char176
ENCODING 176
SWIDTH 45 0
DWIDTH 9 0
BBX 6 6 -1 6
BITMAP
30
48
84
84
48
30
ENDCHAR

STARTCHAR char177
ENCODING 177
SWIDTH 50 0
DWIDTH 10 0
BBX 9 11 0 0
BITMAP
0800
0800
0800
0800
FF80
0800
0800
0800
0800
0000
FF80
ENDCHAR

STARTCHAR char179
ENCODING 179
SWIDTH 39 0
DWIDTH 18 0
BBX 0 0 0 0
BITMAP
ENDCHAR

STARTCHAR char180
ENCODING 180
SWIDTH 0 0
DWIDTH 0 0
BBX 4 3 -1 11
BITMAP
30
60
40
ENDCHAR

STARTCHAR char182
ENCODING 182
SWIDTH 14 0
DWIDTH 13 0
BBX 8 15 2 -3
BITMAP
7F
E2
E2
E2
E2
62
22
22
22
22
22
22
22
22
22
ENDCHAR

STARTCHAR char183
ENCODING 183
SWIDTH 15 0
DWIDTH 3 0
BBX 1 1 1 5
BITMAP
80
ENDCHAR

STARTCHAR char184
ENCODING 184
SWIDTH 0 0
DWIDTH 0 0
BBX 4 3 -2 -3
BITMAP
70
10
E0
ENDCHAR

STARTCHAR char185
ENCODING 185
SWIDTH 39 0
DWIDTH 18 0
BBX 0 0 0 0
BITMAP
ENDCHAR

STARTCHAR char186
ENCODING 186
SWIDTH 0 0
DWIDTH 0 0
BBX 8 3 -4 13
BITMAP
72
DE
44
ENDCHAR

STARTCHAR char187
ENCODING 187
SWIDTH 40 0
DWIDTH 8 0
BBX 5 7 1 2
BITMAP
A0
D0
50
68
58
50
B0
ENDCHAR

STARTCHAR char189
ENCODING 189
SWIDTH 39 0
DWIDTH 18 0
BBX 0 0 0 0
BITMAP
ENDCHAR

STARTCHAR char191
ENCODING 191
SWIDTH 50 0
DWIDTH 10 0
BBX 7 12 1 0
BITMAP
20
00
00
20
20
20
40
40
80
84
8E
78
ENDCHAR

STARTCHAR char192
ENCODING 192
SWIDTH 24 0
DWIDTH 15 0
BBX 14 16 0 0
BITMAP
0C00
0400
0200
0000
0300
0500
0580
0880
08C0
1840
1060
3FE0
2030
6010
4010
E01C
ENDCHAR

STARTCHAR char193
ENCODING 193
SWIDTH 24 0
DWIDTH 15 0
BBX 14 16 0 0
BITMAP
0180
0100
0200
0000
0300
0500
0580
0880
08C0
1840
1060
3FE0
2030
6010
4010
E01C
ENDCHAR

STARTCHAR char194
ENCODING 194
SWIDTH 24 0
DWIDTH 15 0
BBX 14 16 0 0
BITMAP
0700
0900
18C0
0000
0300
0500
0580
0880
08C0
1840
1060
3FE0
2030
6010
4010
E01C
ENDCHAR

STARTCHAR char195
ENCODING 195
SWIDTH 24 0
DWIDTH 15 0
BBX 14 16 0 0
BITMAP
0E40
1380
0900
0000
0300
0500
0580
0880
08C0
1840
1060
3FE0
2030
6010
4010
E01C
ENDCHAR

STARTCHAR char196
ENCODING 196
SWIDTH 24 0
DWIDTH 15 0
BBX 13 13 0 0
BITMAP
14A0
0700
0500
0C80
0880
0840
1040
1020
3FE0
2010
6010
4018
E018
ENDCHAR

STARTCHAR char197
ENCODING 197
SWIDTH 24 0
DWIDTH 15 0
BBX 14 16 0 0
BITMAP
0700
0480
0780
0000
0300
0500
0580
0880
08C0
1840
1060
3FE0
2030
6010
4010
E01C
ENDCHAR

STARTCHAR char198
ENCODING 198
SWIDTH 49 0
DWIDTH 20 0
BBX 18 13 0 0
BITMAP
000040
01FFC0
028000
028000
048000
0C8100
08FE00
188100
1F8000
208000
208000
408040
40FFC0
ENDCHAR

STARTCHAR char199
ENCODING 199
SWIDTH 29 0
DWIDTH 16 0
BBX 13 15 1 -3
BITMAP
1FC0
6030
4010
8000
8000
8000
8000
8000
C008
6018
3870
07C0
0700
0100
0E00
ENDCHAR

STARTCHAR char200
ENCODING 200
SWIDTH 19 0
DWIDTH 14 0
BBX 12 16 1 0
BITMAP
3000
1800
0C00
0020
7FE0
4000
4000
4000
4000
7F00
4080
4000
4000
4000
4010
7FE0
ENDCHAR

STARTCHAR char201
ENCODING 201
SWIDTH 19 0
DWIDTH 14 0
BBX 12 16 1 0
BITMAP
0200
0400
0800
0020
7FE0
4000
4000
4000
4000
7F00
4080
4000
4000
4000
4010
7FE0
ENDCHAR

STARTCHAR char202
ENCODING 202
SWIDTH 19 0
DWIDTH 14 0
BBX 12 16 1 0
BITMAP
0C00
1600
2300
0020
7FE0
4000
4000
4000
4000
7F00
4080
4000
4000
4000
4010
7FE0
ENDCHAR

STARTCHAR char203
ENCODING 203
SWIDTH 19 0
DWIDTH 14 0
BBX 12 15 1 0
BITMAP
2100
0000
0020
7FE0
4000
4000
4000
4000
7F00
4080
4000
4000
4000
4010
7FE0
ENDCHAR

STARTCHAR char204
ENCODING 204
SWIDTH 25 0
DWIDTH 5 0
BBX 5 16 -1 0
BITMAP
40
20
10
00
10
10
10
10
10
10
10
10
10
10
10
38
ENDCHAR

STARTCHAR char205
ENCODING 205
SWIDTH 25 0
DWIDTH 5 0
BBX 5 16 1 0
BITMAP
30
20
40
00
40
40
40
40
40
40
40
40
40
40
40
70
ENDCHAR

STARTCHAR char206
ENCODING 206
SWIDTH 25 0
DWIDTH 5 0
BBX 7 16 -1 0
BITMAP
30
48
84
00
10
10
10
10
10
10
10
10
10
10
10
38
ENDCHAR

STARTCHAR char207
ENCODING 207
SWIDTH 25 0
DWIDTH 5 0
BBX 6 16 -1 0
BITMAP
80
84
00
00
10
10
10
10
10
10
10
10
10
10
10
38
ENDCHAR

STARTCHAR char209
ENCODING 209
SWIDTH 29 0
DWIDTH 16 0
BBX 13 16 1 0
BITMAP
1C40
3780
1100
0000
6010
5010
5810
4C10
4410
4210
4310
4190
40D0
4070
4030
C038
ENDCHAR

STARTCHAR char210
ENCODING 210
SWIDTH 39 0
DWIDTH 18 0
BBX 14 16 1 0
BITMAP
0C00
0400
0200
0000
1FE0
6030
4008
800C
8004
8004
8004
8004
C008
4018
3030
0FC0
ENDCHAR

STARTCHAR char211
ENCODING 211
SWIDTH 39 0
DWIDTH 18 0
BBX 14 16 1 0
BITMAP
0180
0100
0200
0000
1FE0
6030
4008
800C
8004
8004
8004
8004
C008
4018
3030
0FC0
ENDCHAR

STARTCHAR char212
ENCODING 212
SWIDTH 39 0
DWIDTH 18 0
BBX 14 16 1 0
BITMAP
0300
0580
18C0
0000
1FE0
6030
4008
800C
8004
8004
8004
8004
C008
4018
3030
0FC0
ENDCHAR

STARTCHAR char213
ENCODING 213
SWIDTH 39 0
DWIDTH 18 0
BBX 14 16 1 0
BITMAP
0E40
13C0
0880
0000
1FE0
6030
4008
800C
8004
8004
8004
8004
C008
4018
3030
0FC0
ENDCHAR

STARTCHAR char214
ENCODING 214
SWIDTH 39 0
DWIDTH 18 0
BBX 14 13 1 0
BITMAP
4008
5FE8
6030
4008
800C
8004
8004
8004
8004
C008
4018
3030
0FC0
ENDCHAR

STARTCHAR char216
ENCODING 216
SWIDTH 39 0
DWIDTH 18 0
BBX 15 13 0 0
BITMAP
0004
0FF4
3018
203C
4066
40C2
4102
4202
4402
6804
300C
7838
CFE0
ENDCHAR

STARTCHAR char217
ENCODING 217
SWIDTH 29 0
DWIDTH 16 0
BBX 12 16 1 0
BITMAP
1800
0C00
0600
0000
C020
C020
4020
4020
4020
4020
4020
4020
4020
4020
6060
3F80
ENDCHAR

STARTCHAR char218
ENCODING 218
SWIDTH 29 0
DWIDTH 16 0
BBX 12 16 1 0
BITMAP
0100
0200
0400
0000
C020
C020
4020
4020
4020
4020
4020
4020
4020
4020
6060
3F80
ENDCHAR

STARTCHAR char219
ENCODING 219
SWIDTH 29 0
DWIDTH 16 0
BBX 12 16 1 0
BITMAP
0600
0B00
1180
0000
C020
C020
4020
4020
4020
4020
4020
4020
4020
4020
6060
3F80
ENDCHAR

STARTCHAR char220
ENCODING 220
SWIDTH 29 0
DWIDTH 16 0
BBX 13 13 1 0
BITMAP
A938
C020
C020
4020
4020
4020
4020
4020
4020
4020
4020
6060
3F80
ENDCHAR

STARTCHAR char222
ENCODING 222
SWIDTH 39 0
DWIDTH 18 0
BBX 0 0 0 0
BITMAP
ENDCHAR

STARTCHAR char223
ENCODING 223
SWIDTH 13 0
DWIDTH 23 0
BBX 21 11 0 0
BITMAP
000080
3F43F0
C08C08
800800
C00800
7F87F0
01C018
004008
804808
C09C18
3F03E0
ENDCHAR

STARTCHAR char224
ENCODING 224
SWIDTH 14 0
DWIDTH 13 0
BBX 12 14 0 0
BITMAP
1800
0800
0400
0000
0600
0A00
0B00
1100
1100
2080
3F80
6040
4040
E070
ENDCHAR

STARTCHAR char225
ENCODING 225
SWIDTH 14 0
DWIDTH 13 0
BBX 12 14 0 0
BITMAP
0300
0200
0E00
0000
0600
0A00
0B00
1100
1100
2080
3F80
6040
4040
E070
ENDCHAR

STARTCHAR char226
ENCODING 226
SWIDTH 14 0
DWIDTH 13 0
BBX 12 14 0 0
BITMAP
0C00
0E00
1300
0000
0600
0A00
0B00
1100
1100
2080
3F80
6040
4040
E070
ENDCHAR

STARTCHAR char227
ENCODING 227
SWIDTH 14 0
DWIDTH 13 0
BBX 12 13 0 0
BITMAP
1D00
1200
0000
0600
0A00
0B00
1100
1100
2080
3F80
6040
4040
E070
ENDCHAR

STARTCHAR char228
ENCODING 228
SWIDTH 14 0
DWIDTH 13 0
BBX 12 13 0 0
BITMAP
1100
0000
0000
0600
0A00
0B00
1100
1100
3080
3F80
4040
4040
E070
ENDCHAR

STARTCHAR char229
ENCODING 229
SWIDTH 14 0
DWIDTH 13 0
BBX 11 13 0 0
BITMAP
0E00
0A00
0C00
0600
0A00
0B00
1100
1180
2080
3F80
6040
4060
C060
ENDCHAR

STARTCHAR char230
ENCODING 230
SWIDTH 29 0
DWIDTH 16 0
BBX 15 11 0 0
BITMAP
0002
07FE
0500
0900
1900
11F0
3108
3F00
4100
4100
81FC
ENDCHAR

STARTCHAR char231
ENCODING 231
SWIDTH 14 0
DWIDTH 13 0
BBX 12 13 0 -3
BITMAP
1FF0
6020
4000
8000
8000
8000
C000
6020
3860
0780
0700
0100
0E00
ENDCHAR

STARTCHAR char232
ENCODING 232
SWIDTH 9 0
DWIDTH 12 0
BBX 9 14 1 0
BITMAP
6000
3000
1000
0080
FF80
8000
8000
8000
FE00
8100
8000
8000
8000
FF80
ENDCHAR

STARTCHAR char233
ENCODING 233
SWIDTH 9 0
DWIDTH 12 0
BBX 9 14 1 0
BITMAP
0600
0C00
0800
0080
FF80
8000
8000
8000
FE00
8100
8000
8000
8000
FF80
ENDCHAR

STARTCHAR char234
ENCODING 234
SWIDTH 9 0
DWIDTH 12 0
BBX 9 14 1 0
BITMAP
1800
1800
2400
0080
FF80
8000
8000
8000
FE00
8100
8000
8000
8000
FF80
ENDCHAR

STARTCHAR char235
ENCODING 235
SWIDTH 9 0
DWIDTH 12 0
BBX 9 13 1 0
BITMAP
6400
0000
0080
FF80
8000
8000
8000
FE00
8200
8000
8000
8000
FF80
ENDCHAR

STARTCHAR char236
ENCODING 236
SWIDTH 20 0
DWIDTH 4 0
BBX 5 14 -1 0
BITMAP
C0
60
30
00
10
10
10
10
10
10
10
10
10
38
ENDCHAR

STARTCHAR char237
ENCODING 237
SWIDTH 20 0
DWIDTH 4 0
BBX 4 14 1 0
BITMAP
30
20
40
00
40
40
40
40
40
40
40
40
40
E0
ENDCHAR

STARTCHAR char238
ENCODING 238
SWIDTH 20 0
DWIDTH 4 0
BBX 6 13 -1 0
BITMAP
30
58
00
20
20
20
20
20
20
20
20
20
30
ENDCHAR

STARTCHAR char239
ENCODING 239
SWIDTH 20 0
DWIDTH 4 0
BBX 5 13 -1 0
BITMAP
88
00
00
20
20
20
20
20
20
20
20
20
30
ENDCHAR

STARTCHAR char241
ENCODING 241
SWIDTH 19 0
DWIDTH 14 0
BBX 11 13 1 0
BITMAP
1900
2600
0000
E040
A040
9040
8840
8440
8240
8340
8140
80C0
E060
ENDCHAR

STARTCHAR char242
ENCODING 242
SWIDTH 24 0
DWIDTH 15 0
BBX 13 14 0 0
BITMAP
1800
0400
0200
0000
1FC0
6030
4010
8008
8008
8008
C018
4010
3060
0F80
ENDCHAR

STARTCHAR char243
ENCODING 243
SWIDTH 24 0
DWIDTH 15 0
BBX 13 14 0 0
BITMAP
0180
0100
0200
0000
1FC0
6030
4010
8008
8008
8008
C018
4010
3060
0F80
ENDCHAR

STARTCHAR char244
ENCODING 244
SWIDTH 24 0
DWIDTH 15 0
BBX 13 14 0 0
BITMAP
0600
0600
0980
0000
1FC0
6030
4010
8008
8008
8008
C018
4010
3060
0F80
ENDCHAR

STARTCHAR char245
ENCODING 245
SWIDTH 24 0
DWIDTH 15 0
BBX 13 13 0 0
BITMAP
0E80
1100
0000
1FC0
6030
4010
8008
8008
8008
C018
4010
3060
0F80
ENDCHAR

STARTCHAR char246
ENCODING 246
SWIDTH 24 0
DWIDTH 15 0
BBX 13 13 0 0
BITMAP
0880
0400
0000
1FC0
6030
4010
8008
8008
8008
C018
4010
3060
0F80
ENDCHAR

STARTCHAR char247
ENCODING 247
SWIDTH 50 0
DWIDTH 10 0
BBX 9 5 0 2
BITMAP
0800
0000
FF80
0000
0800
ENDCHAR

STARTCHAR char248
ENCODING 248
SWIDTH 24 0
DWIDTH 15 0
BBX 13 11 0 0
BITMAP
0010
1FF0
2060
4090
8118
8208
8408
C818
5010
7060
9F80
ENDCHAR

STARTCHAR char249
ENCODING 249
SWIDTH 14 0
DWIDTH 13 0
BBX 10 14 1 0
BITMAP
3000
1000
0800
0000
80C0
8040
8040
8040
8040
8040
8040
8040
4080
3F00
ENDCHAR

STARTCHAR char250
ENCODING 250
SWIDTH 14 0
DWIDTH 13 0
BBX 10 14 1 0
BITMAP
0700
0400
0800
0000
80C0
8040
8040
8040
8040
8040
8040
8040
4080
3F00
ENDCHAR

STARTCHAR char251
ENCODING 251
SWIDTH 14 0
DWIDTH 13 0
BBX 10 14 1 0
BITMAP
0C00
1C00
2200
0000
80C0
8040
8040
8040
8040
8040
8040
8040
4080
3F00
ENDCHAR

STARTCHAR char252
ENCODING 252
SWIDTH 14 0
DWIDTH 13 0
BBX 10 13 1 0
BITMAP
2200
1000
0000
80C0
8040
8040
8040
8040
8040
8040
8040
4080
3F00
ENDCHAR

STARTCHAR char255
ENCODING 255
SWIDTH 4 0
DWIDTH 11 0
BBX 8 13 1 0
BITMAP
46
00
00
81
82
44
2C
38
10
10
10
10
18
ENDCHAR
ENDFONT
